<?xml version="1.0" encoding="UTF-8" standalone="no"?>
<svg width="107px" height="20px" viewBox="0 0 107 20" version="1.1" xmlns="http://www.w3.org/2000/svg" xmlns:xlink="http://www.w3.org/1999/xlink" xmlns:sketch="http://www.bohemiancoding.com/sketch/ns">
    <!-- Generator: Sketch 3.2.2 (9983) - http://www.bohemiancoding.com/sketch -->
    <title>Group</title>
    <desc>Created with Sketch.</desc>
    <defs></defs>
    <g id="Page-1" stroke="none" stroke-width="1" fill="none" fill-rule="evenodd" sketch:type="MSPage">
        <g id="-logo-landing-mc" sketch:type="MSLayerGroup" transform="translate(-467.000000, -910.000000)">
            <g id="Group" transform="translate(467.000000, 910.000000)" sketch:type="MSShapeGroup">
                <rect id="Rectangle-path" fill="#EF6541" x="11.3" y="2" width="8.4" height="15"></rect>
                <path d="M11.8,9.6 C11.8,6.6 13.2,3.8 15.4,2.1 C13.8,0.8 11.7,0.1 9.5,0.1 C4.3,5.55111512e-16 0,4.3 0,9.6 C0,14.9 4.3,19.2 9.6,19.2 C11.8,19.2 13.9,18.4 15.5,17.2 C13.2,15.3 11.8,12.6 11.8,9.6" id="Shape" fill="#E94B43"></path>
                <path d="M30.9,9.6 C30.9,14.9 26.6,19.2 21.3,19.2 C19.1,19.2 17,18.4 15.4,17.2 C17.6,15.5 19,12.7 19,9.7 C19,6.7 17.6,3.9 15.4,2.2 C17,0.9 19.1,0.2 21.3,0.2 C26.6,-3.60822483e-16 30.9,4.3 30.9,9.6" id="Shape" fill="#F7A13C"></path>
                <path d="M50,9.6 C50,8.5 50.7,7.6 51.9,7.6 C53,7.6 53.8,8.5 53.8,9.6 C53.8,10.8 53,11.6 51.9,11.6 C50.7,11.6 50,10.7 50,9.6 L50,9.6 Z M55.1,9.6 L55.1,6.4 L53.7,6.4 L53.7,7.2 C53.3,6.6 52.6,6.3 51.7,6.3 C49.9,6.3 48.5,7.7 48.5,9.6 C48.5,11.5 49.9,12.9 51.7,12.9 C52.6,12.9 53.3,12.5 53.7,12 L53.7,12.8 L55.1,12.8 L55.1,9.6 L55.1,9.6 Z M101.8,9.6 C101.8,8.5 102.5,7.6 103.7,7.6 C104.8,7.6 105.6,8.5 105.6,9.6 C105.6,10.8 104.8,11.6 103.7,11.6 C102.6,11.6 101.8,10.7 101.8,9.6 L101.8,9.6 Z M107,9.6 L107,3.9 L105.6,3.9 L105.6,7.2 C105.2,6.6 104.5,6.3 103.6,6.3 C101.8,6.3 100.4,7.7 100.4,9.6 C100.4,11.5 101.8,12.9 103.6,12.9 C104.5,12.9 105.2,12.5 105.6,12 L105.6,12.8 L107,12.8 L107,9.6 L107,9.6 Z M72.3,7.5 C73.2,7.5 73.8,8.1 73.9,9 L70.6,9 C70.7,8.1 71.3,7.5 72.3,7.5 L72.3,7.5 Z M72.3,6.3 C70.4,6.3 69.1,7.7 69.1,9.6 C69.1,11.6 70.5,12.9 72.4,12.9 C73.4,12.9 74.2,12.7 75,12 L74.3,11 C73.8,11.4 73.1,11.7 72.5,11.7 C71.6,11.7 70.8,11.3 70.6,10.1 L75.3,10.1 L75.3,9.6 C75.3,7.6 74.1,6.3 72.3,6.3 L72.3,6.3 Z M89,9.6 C89,8.5 89.7,7.6 90.9,7.6 C92,7.6 92.8,8.5 92.8,9.6 C92.8,10.8 92,11.6 90.9,11.6 C89.7,11.6 89,10.7 89,9.6 L89,9.6 Z M94.1,9.6 L94.1,6.4 L92.7,6.4 L92.7,7.2 C92.3,6.6 91.6,6.3 90.7,6.3 C88.9,6.3 87.5,7.7 87.5,9.6 C87.5,11.5 88.9,12.9 90.7,12.9 C91.6,12.9 92.3,12.5 92.7,12 L92.7,12.8 L94.1,12.8 L94.1,9.6 L94.1,9.6 Z M81.2,9.6 C81.2,11.5 82.5,12.9 84.6,12.9 C85.6,12.9 86.2,12.7 86.9,12.1 L86.2,11 C85.7,11.4 85.1,11.6 84.5,11.6 C83.4,11.6 82.6,10.8 82.6,9.6 C82.6,8.4 83.4,7.6 84.5,7.6 C85.1,7.6 85.6,7.8 86.2,8.2 L86.9,7 C86.2,6.5 85.6,6.2 84.6,6.2 C82.5,6.3 81.2,7.7 81.2,9.6 L81.2,9.6 Z M99,6.3 C98.2,6.3 97.7,6.7 97.3,7.2 L97.3,6.4 L96,6.4 L96,12.8 L97.4,12.8 L97.4,9.2 C97.4,8.1 97.9,7.6 98.8,7.6 C99.1,7.6 99.4,7.6 99.7,7.8 L100.1,6.5 C99.7,6.3 99.3,6.3 99,6.3 L99,6.3 Z M62,6.9 C61.3,6.5 60.4,6.2 59.4,6.2 C57.8,6.2 56.8,7 56.8,8.2 C56.8,9.2 57.6,9.9 59,10.1 L59.7,10.2 C60.5,10.3 60.8,10.5 60.8,10.9 C60.8,11.4 60.3,11.7 59.4,11.7 C58.4,11.7 57.8,11.4 57.3,11 L56.6,12.1 C57.4,12.7 58.3,12.9 59.4,12.9 C61.2,12.9 62.3,12 62.3,10.8 C62.3,9.7 61.5,9.1 60.1,8.9 L59.4,8.8 C58.8,8.7 58.3,8.6 58.3,8.2 C58.3,7.7 58.8,7.5 59.5,7.5 C60.3,7.5 61.1,7.8 61.5,8 L62,6.9 L62,6.9 Z M79.8,6.3 C79,6.3 78.5,6.7 78.1,7.2 L78.1,6.4 L76.7,6.4 L76.7,12.8 L78.1,12.8 L78.1,9.2 C78.1,8.1 78.6,7.6 79.5,7.6 C79.8,7.6 80.1,7.6 80.4,7.8 L80.8,6.5 C80.5,6.3 80.1,6.3 79.8,6.3 L79.8,6.3 Z M68,6.4 L65.7,6.4 L65.7,4.5 L64.3,4.5 L64.3,6.4 L63,6.4 L63,7.7 L64.3,7.7 L64.3,10.6 C64.3,12.1 64.9,13 66.5,13 C67.1,13 67.8,12.8 68.2,12.5 L67.8,11.3 C67.4,11.5 66.9,11.7 66.6,11.7 C65.9,11.7 65.7,11.3 65.7,10.6 L65.7,7.7 L68,7.7 L68,6.4 L68,6.4 Z M47.4,12.8 L47.4,8.8 C47.4,7.3 46.4,6.3 44.9,6.3 C44.1,6.3 43.3,6.5 42.7,7.4 C42.3,6.7 41.6,6.3 40.6,6.3 C39.9,6.3 39.3,6.5 38.7,7.2 L38.7,6.4 L37.3,6.4 L37.3,12.8 L38.7,12.8 L38.7,9.3 C38.7,8.2 39.3,7.6 40.3,7.6 C41.2,7.6 41.7,8.2 41.7,9.3 L41.7,12.8 L43,12.8 L43,9.3 C43,8.2 43.6,7.6 44.6,7.6 C45.5,7.6 46,8.2 46,9.3 L46,12.8 L47.4,12.8 L47.4,12.8 Z" id="Shape" fill="#050708"></path>
            </g>
        </g>
    </g>
</svg>