<?xml version="1.0" encoding="utf-8"?>
<!-- Generator: Adobe Illustrator 17.1.0, SVG Export Plug-In . SVG Version: 6.00 Build 0)  -->
<!DOCTYPE svg PUBLIC "-//W3C//DTD SVG 1.1//EN" "http://www.w3.org/Graphics/SVG/1.1/DTD/svg11.dtd" [
	<!ENTITY ns_extend "http://ns.adobe.com/Extensibility/1.0/">
	<!ENTITY ns_ai "http://ns.adobe.com/AdobeIllustrator/10.0/">
	<!ENTITY ns_graphs "http://ns.adobe.com/Graphs/1.0/">
	<!ENTITY ns_vars "http://ns.adobe.com/Variables/1.0/">
	<!ENTITY ns_imrep "http://ns.adobe.com/ImageReplacement/1.0/">
	<!ENTITY ns_sfw "http://ns.adobe.com/SaveForWeb/1.0/">
	<!ENTITY ns_custom "http://ns.adobe.com/GenericCustomNamespace/1.0/">
	<!ENTITY ns_adobe_xpath "http://ns.adobe.com/XPath/1.0/">
]>
<svg version="1.1" id="Capa_1" xmlns:x="&ns_extend;" xmlns:i="&ns_ai;" xmlns:graph="&ns_graphs;"
	 xmlns="http://www.w3.org/2000/svg" xmlns:xlink="http://www.w3.org/1999/xlink" x="0px" y="0px" viewBox="200 113.1 555.6 333.8"
	 enable-background="new 200 113.1 555.6 333.8" xml:space="preserve">
<metadata>
	<sfw  xmlns="&ns_sfw;">
		<slices></slices>
		<sliceSourceBounds  width="560" height="333.8" bottomLeftOrigin="true" x="200" y="113.1"></sliceSourceBounds>
	</sfw>
</metadata>
<g>
	<path fill="#AEB1BD" d="M480,113.1c-107,0-204,58.5-275.6,153.6c-5.8,7.8-5.8,18.7,0,26.5C276,388.4,373,446.9,480,446.9
		s204-58.5,275.6-153.6c5.8-7.8,5.8-18.7,0-26.5C684,171.6,587,113.1,480,113.1z M487.7,397.5c-71,4.5-129.7-54.1-125.2-125.2
		c3.7-58.7,51.2-106.2,109.9-109.9c71-4.5,129.7,54.1,125.2,125.2C593.8,346.2,546.2,393.8,487.7,397.5z M484.1,343.2
		c-38.3,2.4-69.9-29.1-67.4-67.4c1.9-31.6,27.6-57.2,59.2-59.2c38.3-2.4,69.9,29.1,67.4,67.4C541.3,315.7,515.6,341.3,484.1,343.2z"
		/>
</g>
</svg>
